<?xml version="1.0" encoding="UTF-8" standalone="no"?>
<svg
   xmlns:osb="http://www.openswatchbook.org/uri/2009/osb"
   xmlns:dc="http://purl.org/dc/elements/1.1/"
   xmlns:cc="http://creativecommons.org/ns#"
   xmlns:rdf="http://www.w3.org/1999/02/22-rdf-syntax-ns#"
   xmlns:svg="http://www.w3.org/2000/svg"
   xmlns="http://www.w3.org/2000/svg"
   xmlns:xlink="http://www.w3.org/1999/xlink"
   xmlns:sodipodi="http://sodipodi.sourceforge.net/DTD/sodipodi-0.dtd"
   xmlns:inkscape="http://www.inkscape.org/namespaces/inkscape"
   inkscape:version="1.0 (4035a4fb49, 2020-05-01)"
   sodipodi:docname="SoxsaMinilabBackground.svg"
   width="600"
   height="380"
   version="1.1"
   id="svg4226">
  <sodipodi:namedview
     inkscape:current-layer="svg4226"
     inkscape:window-maximized="1"
     inkscape:window-y="-8"
     inkscape:window-x="-8"
     inkscape:cy="222.62488"
     inkscape:cx="220.40583"
     inkscape:zoom="1.1266872"
     inkscape:snap-page="true"
     showgrid="false"
     id="namedview852"
     inkscape:window-height="837"
     inkscape:window-width="1600"
     inkscape:pageshadow="2"
     inkscape:pageopacity="0"
     guidetolerance="10"
     gridtolerance="10"
     objecttolerance="10"
     borderopacity="1"
     inkscape:document-rotation="0"
     bordercolor="#666666"
     pagecolor="#ffffff"
     units="px"
     inkscape:document-units="px" />
  <metadata
     id="metadata14">
    <rdf:RDF>
      <cc:Work
         rdf:about="">
        <dc:format>image/svg+xml</dc:format>
        <dc:type
           rdf:resource="http://purl.org/dc/dcmitype/StillImage" />
        <dc:title></dc:title>
      </cc:Work>
    </rdf:RDF>
  </metadata>
  <defs
     id="defs12">
    <linearGradient
       osb:paint="gradient"
       id="linearGradient12367">
      <stop
         id="stop12363"
         offset="0"
         style="stop-color:#000000;stop-opacity:1;" />
      <stop
         id="stop12365"
         offset="1"
         style="stop-color:#000000;stop-opacity:0;" />
    </linearGradient>
    <linearGradient
       osb:paint="solid"
       id="linearGradient4164">
      <stop
         id="stop4162"
         offset="0"
         style="stop-color:#1d55ff;stop-opacity:1;" />
    </linearGradient>
    <linearGradient
       osb:paint="solid"
       id="linearGradient2698">
      <stop
         id="stop2696"
         offset="0"
         style="stop-color:#000000;stop-opacity:1;" />
    </linearGradient>
    <linearGradient
       osb:paint="solid"
       id="linearGradient2677">
      <stop
         id="stop2675"
         offset="0"
         style="stop-color:#000000;stop-opacity:1;" />
    </linearGradient>
    <linearGradient
       osb:paint="solid"
       id="linearGradient2667">
      <stop
         id="stop2665"
         offset="0"
         style="stop-color:#80261a;stop-opacity:1;" />
    </linearGradient>
    <linearGradient
       osb:paint="solid"
       id="linearGradient2661">
      <stop
         id="stop2659"
         offset="0"
         style="stop-color:#80261a;stop-opacity:1;" />
    </linearGradient>
    <linearGradient
       osb:paint="solid"
       id="linearGradient2655">
      <stop
         id="stop2653"
         offset="0"
         style="stop-color:#80261a;stop-opacity:1;" />
    </linearGradient>
    <linearGradient
       gradientTransform="matrix(1.1572579,0,0,14.27017,0,-4706.064)"
       osb:paint="solid"
       id="linearGradient2649">
      <stop
         id="stop2647"
         offset="0"
         style="stop-color:#80261a;stop-opacity:1;" />
    </linearGradient>
    <linearGradient
       gradientTransform="matrix(0.94992449,0,0,1,10.4468,32.899769)"
       osb:paint="solid"
       id="linearGradient2641">
      <stop
         id="stop2639"
         offset="0"
         style="stop-color:#cc4a00;stop-opacity:1;" />
    </linearGradient>
    <linearGradient
       osb:paint="solid"
       id="linearGradient1781">
      <stop
         id="stop1779"
         offset="0"
         style="stop-color:#cccccc;stop-opacity:1;" />
    </linearGradient>
    <linearGradient
       id="linearGradient3000"
       osb:paint="solid">
      <stop
         style="stop-color:#c6c6c6;stop-opacity:1;"
         offset="0"
         id="stop2998" />
    </linearGradient>
    <linearGradient
       id="linearGradient1145"
       osb:paint="solid">
      <stop
         style="stop-color:#d0d4d1;stop-opacity:1;"
         offset="0"
         id="stop1143" />
    </linearGradient>
    <linearGradient
       gradientTransform="matrix(1,0,0,1.0083925,31.675324,-8.8256304)"
       osb:paint="solid"
       id="linearGradient3532">
      <stop
         id="stop3530"
         offset="0"
         style="stop-color:#ff0000;stop-opacity:1;" />
    </linearGradient>
    <linearGradient
       osb:paint="solid"
       id="linearGradient1580">
      <stop
         id="stop1578"
         offset="0"
         style="stop-color:#80261a;stop-opacity:1;" />
    </linearGradient>
    <linearGradient
       osb:paint="solid"
       id="linearGradient4116">
      <stop
         id="stop4114"
         offset="0"
         style="stop-color:#b1b8b3;stop-opacity:1;" />
    </linearGradient>
    <linearGradient
       osb:paint="solid"
       id="linearGradient3145">
      <stop
         id="stop3143"
         offset="0"
         style="stop-color:#aeb4af;stop-opacity:1;" />
    </linearGradient>
    <linearGradient
       osb:paint="solid"
       id="linearGradient3133">
      <stop
         id="stop3131"
         offset="0"
         style="stop-color:#000000;stop-opacity:1;" />
    </linearGradient>
    <linearGradient
       osb:paint="solid"
       id="linearGradient3114">
      <stop
         id="stop3112"
         offset="0"
         style="stop-color:#292c31;stop-opacity:1;" />
    </linearGradient>
    <linearGradient
       osb:paint="solid"
       id="linearGradient3054">
      <stop
         id="stop3052"
         offset="0"
         style="stop-color:#b8bfba;stop-opacity:1;" />
    </linearGradient>
    <linearGradient
       osb:paint="solid"
       id="linearGradient3048">
      <stop
         id="stop3046"
         offset="0"
         style="stop-color:#0c0c0c;stop-opacity:1;" />
    </linearGradient>
    <linearGradient
       y2="95.40947"
       x2="274.2532"
       y1="95.40947"
       x1="274.1532"
       gradientTransform="matrix(1,0,0,1.1432544,0.23109943,-13.116007)"
       gradientUnits="userSpaceOnUse"
       id="linearGradient3193"
       xlink:href="#linearGradient3145"
       inkscape:collect="always" />
    <linearGradient
       id="linearGradient858"
       osb:paint="solid">
      <stop
         style="stop-color:#0000c4;stop-opacity:1;"
         offset="0"
         id="stop856" />
    </linearGradient>
    <linearGradient
       gradientUnits="userSpaceOnUse"
       y2="240.14365"
       x2="294.06335"
       y1="240.14365"
       x1="280.72424"
       id="linearGradient4252"
       xlink:href="#linearGradient4164"
       inkscape:collect="always" />
    <linearGradient
       gradientUnits="userSpaceOnUse"
       y2="240.14365"
       x2="314.02872"
       y1="240.14365"
       x1="301.43774"
       id="linearGradient4254"
       xlink:href="#linearGradient4164"
       inkscape:collect="always" />
    <linearGradient
       gradientUnits="userSpaceOnUse"
       y2="240.14365"
       x2="335.24902"
       y1="240.14365"
       x1="321.90991"
       id="linearGradient4256"
       xlink:href="#linearGradient4164"
       inkscape:collect="always" />
    <linearGradient
       gradientUnits="userSpaceOnUse"
       y2="240.14365"
       x2="355.8418"
       y1="240.14365"
       x1="342.50272"
       id="linearGradient4258"
       xlink:href="#linearGradient4164"
       inkscape:collect="always" />
    <linearGradient
       gradientUnits="userSpaceOnUse"
       y2="238.39453"
       x2="341.43631"
       y1="238.39453"
       x1="268.48123"
       id="linearGradient4274"
       xlink:href="#linearGradient4164"
       inkscape:collect="always" />
    <linearGradient
       gradientUnits="userSpaceOnUse"
       y2="240.14365"
       x2="294.06335"
       y1="240.14365"
       x1="280.72424"
       id="linearGradient4278"
       xlink:href="#linearGradient4164"
       inkscape:collect="always" />
    <linearGradient
       y2="-4.3072739"
       x2="258.12228"
       y1="-4.3072739"
       x1="208.62096"
       gradientTransform="matrix(0.94992449,0,0,1,10.4468,32.899769)"
       gradientUnits="userSpaceOnUse"
       id="linearGradient12371"
       xlink:href="#linearGradient2649"
       inkscape:collect="always" />
  </defs>
  <rect
     ry="0"
     rx="0"
     y="0"
     x="0"
     height="380"
     width="600"
     id="rect3016-1"
     style="opacity:1;fill:#2d5050;fill-opacity:1;stroke:none;stroke-width:0;stroke-linecap:round;stroke-linejoin:bevel;stroke-miterlimit:10;stroke-dasharray:none;stroke-dashoffset:0.0173858;stroke-opacity:1;paint-order:markers stroke fill" />
  <text
     id="text2951"
     y="78.01963"
     x="300.79858"
     style="font-style:normal;font-weight:normal;font-size:40px;line-height:1.25;font-family:sans-serif;fill:#000000;fill-opacity:1;stroke:none"
     xml:space="preserve"><tspan
       y="78.01963"
       x="300.79858"
       id="tspan2949"
       sodipodi:role="line" /></text>
  <g
     style="display:none"
     id="g1775">
    <g
       transform="matrix(0.87439144,0,0,0.87439144,94.361811,5.6658232)"
       style="font-style:normal;font-weight:normal;font-size:40px;line-height:1.25;font-family:sans-serif;fill:#cccccc;fill-opacity:1;stroke:none"
       id="text2876-6"
       aria-label="K1">
      <path
         inkscape:connector-curvature="0"
         id="path1383"
         style="font-size:8px;fill:#cccccc"
         d="m 270.17975,47.925339 q 0.22656,0 0.39453,-0.160157 0.16797,-0.160156 0.16797,-0.414062 v -2.203125 l 2.08594,2.414062 q 0.0976,0.121094 0.15625,0.183594 0.0586,0.0625 0.15234,0.121094 0.0937,0.05469 0.18359,0.05469 h 0.008 q 0.21484,0 0.38281,-0.152343 0.17187,-0.152344 0.17187,-0.363282 0,-0.207031 -0.15234,-0.414062 l -1.83203,-2.042969 1.64844,-1.785156 q 0.15234,-0.183594 0.15234,-0.378906 0,-0.203125 -0.16016,-0.34375 -0.16015,-0.144532 -0.36328,-0.144532 -0.21094,0 -0.45703,0.304688 l -1.97656,2.246094 v -1.980469 q 0,-0.257813 -0.16797,-0.417969 -0.16797,-0.160156 -0.39453,-0.160156 -0.22656,0 -0.39453,0.160156 -0.16407,0.160156 -0.16407,0.417969 v 4.484375 q 0,0.257812 0.16407,0.417969 0.16406,0.15625 0.39453,0.15625 z" />
      <path
         inkscape:connector-curvature="0"
         id="path1385"
         style="font-size:8px;fill:#cccccc"
         d="m 276.95319,47.925339 q 0.23828,0 0.39453,-0.171875 0.15625,-0.171875 0.15625,-0.457032 l -0.004,-4.359375 q 0,-0.308593 -0.14844,-0.476562 -0.14453,-0.167969 -0.375,-0.167969 -0.15625,0.0039 -0.3164,0.101563 l -1.38282,0.816406 q -0.20312,0.125 -0.20312,0.335937 0,0.160157 0.10937,0.28125 0.10938,0.121094 0.26563,0.121094 0.11328,0 0.19922,-0.05859 l 0.75781,-0.464843 0.004,3.847656 q 0,0.3125 0.15234,0.484375 0.15234,0.167969 0.39063,0.167969 z" />
    </g>
    <g
       transform="matrix(0.87439144,0,0,0.87439144,81.960884,5.6648418)"
       style="font-style:normal;font-weight:normal;font-size:40px;line-height:1.25;font-family:sans-serif;fill:#cccccc;fill-opacity:1;stroke:none"
       id="text2978"
       aria-label="K2">
      <path
         inkscape:connector-curvature="0"
         id="path1410"
         style="font-size:8px;fill:#cccccc"
         d="m 330.17975,47.925339 q 0.22656,0 0.39453,-0.160157 0.16797,-0.160156 0.16797,-0.414062 v -2.203125 l 2.08594,2.414062 q 0.0976,0.121094 0.15625,0.183594 0.0586,0.0625 0.15234,0.121094 0.0937,0.05469 0.18359,0.05469 h 0.008 q 0.21484,0 0.38281,-0.152343 0.17187,-0.152344 0.17187,-0.363282 0,-0.207031 -0.15234,-0.414062 l -1.83203,-2.042969 1.64844,-1.785156 q 0.15234,-0.183594 0.15234,-0.378906 0,-0.203125 -0.16016,-0.34375 -0.16015,-0.144532 -0.36328,-0.144532 -0.21094,0 -0.45703,0.304688 l -1.97656,2.246094 v -1.980469 q 0,-0.257813 -0.16797,-0.417969 -0.16797,-0.160156 -0.39453,-0.160156 -0.22656,0 -0.39453,0.160156 -0.16407,0.160156 -0.16407,0.417969 v 4.484375 q 0,0.257812 0.16407,0.417969 0.16406,0.15625 0.39453,0.15625 z" />
      <path
         inkscape:connector-curvature="0"
         id="path1412"
         style="font-size:8px;fill:#cccccc"
         d="m 338.50006,43.890182 q 0,-0.679687 -0.51172,-1.148437 -0.50781,-0.46875 -1.30469,-0.46875 -0.48046,0 -0.875,0.128906 -0.39453,0.125 -0.78515,0.355469 -0.20313,0.121094 -0.20313,0.324219 0,0.175781 0.14063,0.328125 0.14062,0.152343 0.30078,0.152343 0.0625,0 0.11328,-0.02734 0.0312,-0.01563 0.22656,-0.128907 0.19532,-0.113281 0.28125,-0.148437 0.0859,-0.03906 0.28125,-0.08594 0.19922,-0.04687 0.41797,-0.04687 0.3711,0 0.62891,0.230469 0.26172,0.230469 0.26172,0.59375 0,0.433594 -0.4961,0.917969 l -2.02343,2.011719 q -0.21485,0.214843 -0.21485,0.5 0,0.226562 0.14844,0.386718 0.15234,0.160157 0.41016,0.160157 h 2.78125 q 0.16015,0 0.25,-0.125 0.0898,-0.128907 0.0898,-0.300782 0,-0.171875 -0.0898,-0.292968 -0.0899,-0.125 -0.25,-0.125 h -2.16407 l 1.65235,-1.464844 q 0.93359,-0.816406 0.93359,-1.726563 z" />
    </g>
    <g
       transform="matrix(0.87439144,0,0,0.87439144,69.503039,5.6621427)"
       style="font-style:normal;font-weight:normal;font-size:40px;line-height:1.25;font-family:sans-serif;fill:#cccccc;fill-opacity:1;stroke:none"
       id="text2984"
       aria-label="K3">
      <path
         inkscape:connector-curvature="0"
         id="path1415"
         style="font-size:8px;fill:#cccccc"
         d="m 390.17975,47.925339 q 0.22656,0 0.39453,-0.160157 0.16797,-0.160156 0.16797,-0.414062 v -2.203125 l 2.08594,2.414062 q 0.0976,0.121094 0.15625,0.183594 0.0586,0.0625 0.15234,0.121094 0.0937,0.05469 0.18359,0.05469 h 0.008 q 0.21484,0 0.38281,-0.152343 0.17187,-0.152344 0.17187,-0.363282 0,-0.207031 -0.15234,-0.414062 l -1.83203,-2.042969 1.64844,-1.785156 q 0.15234,-0.183594 0.15234,-0.378906 0,-0.203125 -0.16016,-0.34375 -0.16015,-0.144532 -0.36328,-0.144532 -0.21094,0 -0.45703,0.304688 l -1.97656,2.246094 v -1.980469 q 0,-0.257813 -0.16797,-0.417969 -0.16797,-0.160156 -0.39453,-0.160156 -0.22656,0 -0.39453,0.160156 -0.16407,0.160156 -0.16407,0.417969 v 4.484375 q 0,0.257812 0.16407,0.417969 0.16406,0.15625 0.39453,0.15625 z" />
      <path
         inkscape:connector-curvature="0"
         id="path1417"
         style="font-size:8px;fill:#cccccc"
         d="m 396.57428,48.00737 q 0.42578,0 0.78125,-0.09766 0.35937,-0.09766 0.63672,-0.289063 0.28125,-0.191406 0.4375,-0.507812 0.16015,-0.316407 0.16015,-0.726563 0,-0.554687 -0.25781,-0.929687 -0.25781,-0.375 -0.76172,-0.511719 0.4336,-0.15625 0.66797,-0.472656 0.23828,-0.316407 0.23828,-0.789063 0,-0.703125 -0.55078,-1.117187 -0.54687,-0.417969 -1.39062,-0.417969 -0.42969,0 -0.83203,0.101562 -0.39844,0.09766 -0.64063,0.25 -0.16797,0.101563 -0.16797,0.308594 0,0.175781 0.11719,0.332031 0.12109,0.152344 0.27344,0.152344 0.0586,0 0.12109,-0.03125 0.45703,-0.222656 1.04688,-0.222656 0.24218,0 0.4414,0.07422 0.20313,0.07422 0.34375,0.25 0.14063,0.175781 0.14063,0.429687 0,0.402344 -0.3086,0.613281 -0.30468,0.207032 -0.78125,0.207032 h -0.30859 q -0.16016,0 -0.24609,0.117187 -0.0859,0.113281 -0.0859,0.269531 0,0.160157 0.082,0.273438 0.0859,0.109375 0.25,0.109375 h 0.32812 q 0.50782,0 0.83985,0.261719 0.33203,0.261718 0.33203,0.691406 0,0.40625 -0.26953,0.597656 -0.26953,0.1875 -0.74219,0.1875 -0.20703,0 -0.43359,-0.05078 -0.22266,-0.05469 -0.32032,-0.09375 -0.0976,-0.03906 -0.28125,-0.121094 -0.0508,-0.02344 -0.10156,-0.02344 -0.15234,0 -0.27734,0.160156 -0.125,0.15625 -0.125,0.339844 0,0.242187 0.22265,0.351562 0.64844,0.324219 1.42188,0.324219 z" />
    </g>
    <g
       transform="matrix(0.87439144,0,0,0.87439144,57.064578,5.6670496)"
       style="font-style:normal;font-weight:normal;font-size:40px;line-height:1.25;font-family:sans-serif;fill:#cccccc;fill-opacity:1;stroke:none"
       id="text2990"
       aria-label="K4">
      <path
         inkscape:connector-curvature="0"
         id="path1420"
         style="font-size:8px;fill:#cccccc"
         d="m 450.17975,47.925339 q 0.22656,0 0.39453,-0.160157 0.16797,-0.160156 0.16797,-0.414062 v -2.203125 l 2.08594,2.414062 q 0.0976,0.121094 0.15625,0.183594 0.0586,0.0625 0.15234,0.121094 0.0937,0.05469 0.18359,0.05469 h 0.008 q 0.21484,0 0.38281,-0.152343 0.17187,-0.152344 0.17187,-0.363282 0,-0.207031 -0.15234,-0.414062 l -1.83203,-2.042969 1.64844,-1.785156 q 0.15234,-0.183594 0.15234,-0.378906 0,-0.203125 -0.16016,-0.34375 -0.16015,-0.144532 -0.36328,-0.144532 -0.21094,0 -0.45703,0.304688 l -1.97656,2.246094 v -1.980469 q 0,-0.257813 -0.16797,-0.417969 -0.16797,-0.160156 -0.39453,-0.160156 -0.22656,0 -0.39453,0.160156 -0.16407,0.160156 -0.16407,0.417969 v 4.484375 q 0,0.257812 0.16407,0.417969 0.16406,0.15625 0.39453,0.15625 z" />
      <path
         inkscape:connector-curvature="0"
         id="path1422"
         style="font-size:8px;fill:#cccccc"
         d="m 457.61334,47.94487 q 0.22266,0 0.3711,-0.144531 0.15234,-0.148438 0.15234,-0.398438 v -0.636719 h 0.45312 q 0.19532,0 0.29688,-0.109375 0.10156,-0.113281 0.10156,-0.285156 0,-0.179687 -0.10547,-0.289062 -0.10547,-0.109375 -0.29297,-0.109375 h -0.44921 V 43.10112 q 0,-0.425781 -0.21094,-0.613281 -0.21094,-0.191407 -0.56641,-0.191407 -0.57031,0 -0.89062,0.53125 l -1.91016,3.171875 q -0.0664,0.125 -0.0664,0.257813 0,0.207031 0.13672,0.359375 0.13672,0.148437 0.36328,0.148437 h 2.09375 v 0.640625 q 0,0.253907 0.15235,0.398438 0.15234,0.140625 0.37109,0.140625 z m -2.0664,-1.972656 1.54296,-2.65625 v 2.65625 z" />
    </g>
  </g>
  <text
     xml:space="preserve"
     style="font-style:normal;font-weight:normal;font-size:40px;line-height:1.25;font-family:sans-serif;fill:#000000;fill-opacity:1;stroke:none"
     x="299.27896"
     y="85.432465"
     id="text1107"><tspan
       sodipodi:role="line"
       id="tspan1105"
       x="299.27896"
       y="85.432465" /></text>
  <g
     id="g217"
     style="display:none">
    <rect
       style="opacity:0.993569;fill:#151619;fill-opacity:1;stroke:none;stroke-width:0;stroke-linecap:round;stroke-linejoin:bevel;stroke-miterlimit:10;paint-order:markers stroke fill"
       id="rect854"
       width="248.83873"
       height="289.7728"
       x="10.580633"
       y="80.227219"
       ry="0.065954722" />
    <g
       id="g174">
      <g
         transform="translate(-228.72571,81.39289)"
         aria-label="K1"
         id="text2876-6-2"
         style="font-style:normal;font-weight:normal;font-size:40px;line-height:1.25;font-family:sans-serif;fill:#cccccc;fill-opacity:1;stroke:none">
        <path
           inkscape:connector-curvature="0"
           d="m 270.17975,47.925339 q 0.22656,0 0.39453,-0.160157 0.16797,-0.160156 0.16797,-0.414062 v -2.203125 l 2.08594,2.414062 q 0.0976,0.121094 0.15625,0.183594 0.0586,0.0625 0.15234,0.121094 0.0937,0.05469 0.18359,0.05469 h 0.008 q 0.21484,0 0.38281,-0.152343 0.17187,-0.152344 0.17187,-0.363282 0,-0.207031 -0.15234,-0.414062 l -1.83203,-2.042969 1.64844,-1.785156 q 0.15234,-0.183594 0.15234,-0.378906 0,-0.203125 -0.16016,-0.34375 -0.16015,-0.144532 -0.36328,-0.144532 -0.21094,0 -0.45703,0.304688 l -1.97656,2.246094 v -1.980469 q 0,-0.257813 -0.16797,-0.417969 -0.16797,-0.160156 -0.39453,-0.160156 -0.22656,0 -0.39453,0.160156 -0.16407,0.160156 -0.16407,0.417969 v 4.484375 q 0,0.257812 0.16407,0.417969 0.16406,0.15625 0.39453,0.15625 z"
           style="font-size:8px;fill:#cccccc"
           id="path1383-3" />
        <path
           inkscape:connector-curvature="0"
           d="m 276.95319,47.925339 q 0.23828,0 0.39453,-0.171875 0.15625,-0.171875 0.15625,-0.457032 l -0.004,-4.359375 q 0,-0.308593 -0.14844,-0.476562 -0.14453,-0.167969 -0.375,-0.167969 -0.15625,0.0039 -0.3164,0.101563 l -1.38282,0.816406 q -0.20312,0.125 -0.20312,0.335937 0,0.160157 0.10937,0.28125 0.10938,0.121094 0.26563,0.121094 0.11328,0 0.19922,-0.05859 l 0.75781,-0.464843 0.004,3.847656 q 0,0.3125 0.15234,0.484375 0.15234,0.167969 0.39063,0.167969 z"
           style="font-size:8px;fill:#cccccc"
           id="path1385-7" />
      </g>
      <g
         transform="translate(-229.8696,81.4007)"
         aria-label="K2"
         id="text2978-2"
         style="font-style:normal;font-weight:normal;font-size:40px;line-height:1.25;font-family:sans-serif;fill:#cccccc;fill-opacity:1;stroke:none">
        <path
           inkscape:connector-curvature="0"
           d="m 330.17975,47.925339 q 0.22656,0 0.39453,-0.160157 0.16797,-0.160156 0.16797,-0.414062 v -2.203125 l 2.08594,2.414062 q 0.0976,0.121094 0.15625,0.183594 0.0586,0.0625 0.15234,0.121094 0.0937,0.05469 0.18359,0.05469 h 0.008 q 0.21484,0 0.38281,-0.152343 0.17187,-0.152344 0.17187,-0.363282 0,-0.207031 -0.15234,-0.414062 l -1.83203,-2.042969 1.64844,-1.785156 q 0.15234,-0.183594 0.15234,-0.378906 0,-0.203125 -0.16016,-0.34375 -0.16015,-0.144532 -0.36328,-0.144532 -0.21094,0 -0.45703,0.304688 l -1.97656,2.246094 v -1.980469 q 0,-0.257813 -0.16797,-0.417969 -0.16797,-0.160156 -0.39453,-0.160156 -0.22656,0 -0.39453,0.160156 -0.16407,0.160156 -0.16407,0.417969 v 4.484375 q 0,0.257812 0.16407,0.417969 0.16406,0.15625 0.39453,0.15625 z"
           style="font-size:8px;fill:#cccccc"
           id="path1410-4" />
        <path
           inkscape:connector-curvature="0"
           d="m 338.50006,43.890182 q 0,-0.679687 -0.51172,-1.148437 -0.50781,-0.46875 -1.30469,-0.46875 -0.48046,0 -0.875,0.128906 -0.39453,0.125 -0.78515,0.355469 -0.20313,0.121094 -0.20313,0.324219 0,0.175781 0.14063,0.328125 0.14062,0.152343 0.30078,0.152343 0.0625,0 0.11328,-0.02734 0.0312,-0.01563 0.22656,-0.128907 0.19532,-0.113281 0.28125,-0.148437 0.0859,-0.03906 0.28125,-0.08594 0.19922,-0.04687 0.41797,-0.04687 0.3711,0 0.62891,0.230469 0.26172,0.230469 0.26172,0.59375 0,0.433594 -0.4961,0.917969 l -2.02343,2.011719 q -0.21485,0.214843 -0.21485,0.5 0,0.226562 0.14844,0.386718 0.15234,0.160157 0.41016,0.160157 h 2.78125 q 0.16015,0 0.25,-0.125 0.0898,-0.128907 0.0898,-0.300782 0,-0.171875 -0.0898,-0.292968 -0.0899,-0.125 -0.25,-0.125 h -2.16407 l 1.65235,-1.464844 q 0.93359,-0.816406 0.93359,-1.726563 z"
           style="font-size:8px;fill:#cccccc"
           id="path1412-1" />
      </g>
      <g
         transform="translate(-230.56037,81.42219)"
         aria-label="K3"
         id="text2984-8"
         style="font-style:normal;font-weight:normal;font-size:40px;line-height:1.25;font-family:sans-serif;fill:#cccccc;fill-opacity:1;stroke:none">
        <path
           inkscape:connector-curvature="0"
           d="m 390.17975,47.925339 q 0.22656,0 0.39453,-0.160157 0.16797,-0.160156 0.16797,-0.414062 v -2.203125 l 2.08594,2.414062 q 0.0976,0.121094 0.15625,0.183594 0.0586,0.0625 0.15234,0.121094 0.0937,0.05469 0.18359,0.05469 h 0.008 q 0.21484,0 0.38281,-0.152343 0.17187,-0.152344 0.17187,-0.363282 0,-0.207031 -0.15234,-0.414062 l -1.83203,-2.042969 1.64844,-1.785156 q 0.15234,-0.183594 0.15234,-0.378906 0,-0.203125 -0.16016,-0.34375 -0.16015,-0.144532 -0.36328,-0.144532 -0.21094,0 -0.45703,0.304688 l -1.97656,2.246094 v -1.980469 q 0,-0.257813 -0.16797,-0.417969 -0.16797,-0.160156 -0.39453,-0.160156 -0.22656,0 -0.39453,0.160156 -0.16407,0.160156 -0.16407,0.417969 v 4.484375 q 0,0.257812 0.16407,0.417969 0.16406,0.15625 0.39453,0.15625 z"
           style="font-size:8px;fill:#cccccc"
           id="path1415-2" />
        <path
           inkscape:connector-curvature="0"
           d="m 396.57428,48.00737 q 0.42578,0 0.78125,-0.09766 0.35937,-0.09766 0.63672,-0.289063 0.28125,-0.191406 0.4375,-0.507812 0.16015,-0.316407 0.16015,-0.726563 0,-0.554687 -0.25781,-0.929687 -0.25781,-0.375 -0.76172,-0.511719 0.4336,-0.15625 0.66797,-0.472656 0.23828,-0.316407 0.23828,-0.789063 0,-0.703125 -0.55078,-1.117187 -0.54687,-0.417969 -1.39062,-0.417969 -0.42969,0 -0.83203,0.101562 -0.39844,0.09766 -0.64063,0.25 -0.16797,0.101563 -0.16797,0.308594 0,0.175781 0.11719,0.332031 0.12109,0.152344 0.27344,0.152344 0.0586,0 0.12109,-0.03125 0.45703,-0.222656 1.04688,-0.222656 0.24218,0 0.4414,0.07422 0.20313,0.07422 0.34375,0.25 0.14063,0.175781 0.14063,0.429687 0,0.402344 -0.3086,0.613281 -0.30468,0.207032 -0.78125,0.207032 h -0.30859 q -0.16016,0 -0.24609,0.117187 -0.0859,0.113281 -0.0859,0.269531 0,0.160157 0.082,0.273438 0.0859,0.109375 0.25,0.109375 h 0.32812 q 0.50782,0 0.83985,0.261719 0.33203,0.261718 0.33203,0.691406 0,0.40625 -0.26953,0.597656 -0.26953,0.1875 -0.74219,0.1875 -0.20703,0 -0.43359,-0.05078 -0.22266,-0.05469 -0.32032,-0.09375 -0.0976,-0.03906 -0.28125,-0.121094 -0.0508,-0.02344 -0.10156,-0.02344 -0.15234,0 -0.27734,0.160156 -0.125,0.15625 -0.125,0.339844 0,0.242187 0.22265,0.351562 0.64844,0.324219 1.42188,0.324219 z"
           style="font-size:8px;fill:#cccccc"
           id="path1417-6" />
      </g>
      <g
         transform="translate(-231.40544,81.38312)"
         aria-label="K4"
         id="text2990-0"
         style="font-style:normal;font-weight:normal;font-size:40px;line-height:1.25;font-family:sans-serif;fill:#cccccc;fill-opacity:1;stroke:none">
        <path
           inkscape:connector-curvature="0"
           d="m 450.17975,47.925339 q 0.22656,0 0.39453,-0.160157 0.16797,-0.160156 0.16797,-0.414062 v -2.203125 l 2.08594,2.414062 q 0.0976,0.121094 0.15625,0.183594 0.0586,0.0625 0.15234,0.121094 0.0937,0.05469 0.18359,0.05469 h 0.008 q 0.21484,0 0.38281,-0.152343 0.17187,-0.152344 0.17187,-0.363282 0,-0.207031 -0.15234,-0.414062 l -1.83203,-2.042969 1.64844,-1.785156 q 0.15234,-0.183594 0.15234,-0.378906 0,-0.203125 -0.16016,-0.34375 -0.16015,-0.144532 -0.36328,-0.144532 -0.21094,0 -0.45703,0.304688 l -1.97656,2.246094 v -1.980469 q 0,-0.257813 -0.16797,-0.417969 -0.16797,-0.160156 -0.39453,-0.160156 -0.22656,0 -0.39453,0.160156 -0.16407,0.160156 -0.16407,0.417969 v 4.484375 q 0,0.257812 0.16407,0.417969 0.16406,0.15625 0.39453,0.15625 z"
           style="font-size:8px;fill:#cccccc"
           id="path1420-3" />
        <path
           inkscape:connector-curvature="0"
           d="m 457.61334,47.94487 q 0.22266,0 0.3711,-0.144531 0.15234,-0.148438 0.15234,-0.398438 v -0.636719 h 0.45312 q 0.19532,0 0.29688,-0.109375 0.10156,-0.113281 0.10156,-0.285156 0,-0.179687 -0.10547,-0.289062 -0.10547,-0.109375 -0.29297,-0.109375 h -0.44921 V 43.10112 q 0,-0.425781 -0.21094,-0.613281 -0.21094,-0.191407 -0.56641,-0.191407 -0.57031,0 -0.89062,0.53125 l -1.91016,3.171875 q -0.0664,0.125 -0.0664,0.257813 0,0.207031 0.13672,0.359375 0.13672,0.148437 0.36328,0.148437 h 2.09375 v 0.640625 q 0,0.253907 0.15235,0.398438 0.15234,0.140625 0.37109,0.140625 z m -2.0664,-1.972656 1.54296,-2.65625 v 2.65625 z"
           style="font-size:8px;fill:#cccccc"
           id="path1422-9" />
      </g>
      <g
         transform="translate(-229.32727,137.11665)"
         aria-label="K5"
         id="text2996"
         style="font-style:normal;font-weight:normal;font-size:40px;line-height:1.25;font-family:sans-serif;fill:#cccccc;fill-opacity:1;stroke:none">
        <path
           inkscape:connector-curvature="0"
           d="m 270.17975,87.925339 q 0.22656,0 0.39453,-0.160157 0.16797,-0.160156 0.16797,-0.414062 v -2.203125 l 2.08594,2.414062 q 0.0976,0.121094 0.15625,0.183594 0.0586,0.0625 0.15234,0.121094 0.0937,0.05469 0.18359,0.05469 h 0.008 q 0.21484,0 0.38281,-0.152343 0.17187,-0.152344 0.17187,-0.363282 0,-0.207031 -0.15234,-0.414062 l -1.83203,-2.042969 1.64844,-1.785156 q 0.15234,-0.183594 0.15234,-0.378906 0,-0.203125 -0.16016,-0.34375 -0.16015,-0.144532 -0.36328,-0.144532 -0.21094,0 -0.45703,0.304688 l -1.97656,2.246094 v -1.980469 q 0,-0.257813 -0.16797,-0.417969 -0.16797,-0.160156 -0.39453,-0.160156 -0.22656,0 -0.39453,0.160156 -0.16407,0.160156 -0.16407,0.417969 v 4.484375 q 0,0.257812 0.16407,0.417969 0.16406,0.15625 0.39453,0.15625 z"
           style="font-size:8px;fill:#cccccc"
           id="path1388" />
        <path
           inkscape:connector-curvature="0"
           d="m 276.68756,88.015182 q 0.5625,0 1.01953,-0.222656 0.45703,-0.222656 0.72656,-0.652344 0.27344,-0.429687 0.27344,-0.988281 0,-0.820312 -0.48828,-1.308594 -0.48437,-0.488281 -1.25391,-0.488281 -0.21093,0 -0.40625,0.03125 -0.1914,0.03125 -0.3164,0.07422 -0.1211,0.04297 -0.21875,0.08984 -0.0937,0.04297 -0.13672,0.07422 l -0.0391,0.03125 0.008,-1.546875 h 2.15234 q 0.1875,0 0.28907,-0.113281 0.10156,-0.117187 0.10156,-0.292969 0,-0.175781 -0.10156,-0.292968 -0.10157,-0.121094 -0.27344,-0.121094 h -2.47266 q -0.30469,0 -0.44531,0.117187 -0.13672,0.117188 -0.13672,0.402344 v 2.320313 q 0,0.203125 0.20703,0.332031 0.21094,0.128906 0.42578,0.128906 0.11328,0 0.16797,-0.04297 0.48047,-0.359375 0.94922,-0.359375 0.41406,0 0.67188,0.253907 0.26171,0.253906 0.26171,0.707031 0,0.488281 -0.25781,0.746094 -0.25781,0.257812 -0.74609,0.257812 -0.6211,0 -1.17188,-0.40625 -0.082,-0.06641 -0.18359,-0.06641 -0.15625,0 -0.28516,0.15625 -0.125,0.15625 -0.125,0.332031 0,0.15625 0.10547,0.25 0.72656,0.597656 1.69922,0.597656 z"
           style="font-size:8px;fill:#cccccc"
           id="path1390" />
      </g>
      <g
         transform="translate(-230.0278,137.19673)"
         aria-label="K6"
         id="text3002"
         style="font-style:normal;font-weight:normal;font-size:40px;line-height:1.25;font-family:sans-serif;fill:#cccccc;fill-opacity:1;stroke:none">
        <path
           inkscape:connector-curvature="0"
           d="m 330.17975,87.925339 q 0.22656,0 0.39453,-0.160157 0.16797,-0.160156 0.16797,-0.414062 v -2.203125 l 2.08594,2.414062 q 0.0976,0.121094 0.15625,0.183594 0.0586,0.0625 0.15234,0.121094 0.0937,0.05469 0.18359,0.05469 h 0.008 q 0.21484,0 0.38281,-0.152343 0.17187,-0.152344 0.17187,-0.363282 0,-0.207031 -0.15234,-0.414062 l -1.83203,-2.042969 1.64844,-1.785156 q 0.15234,-0.183594 0.15234,-0.378906 0,-0.203125 -0.16016,-0.34375 -0.16015,-0.144532 -0.36328,-0.144532 -0.21094,0 -0.45703,0.304688 l -1.97656,2.246094 v -1.980469 q 0,-0.257813 -0.16797,-0.417969 -0.16797,-0.160156 -0.39453,-0.160156 -0.22656,0 -0.39453,0.160156 -0.16407,0.160156 -0.16407,0.417969 v 4.484375 q 0,0.257812 0.16407,0.417969 0.16406,0.15625 0.39453,0.15625 z"
           style="font-size:8px;fill:#cccccc"
           id="path1405" />
        <path
           inkscape:connector-curvature="0"
           d="m 336.78131,88.011276 q 0.92969,0 1.48047,-0.523437 0.55469,-0.527344 0.55469,-1.367188 0,-0.796875 -0.53125,-1.285156 -0.52735,-0.492188 -1.32422,-0.492188 -0.46485,0 -0.8086,0.164063 -0.34375,0.160156 -0.45703,0.390625 0,-0.347656 0.0312,-0.613281 0.0312,-0.265625 0.11719,-0.515625 0.0859,-0.25 0.23047,-0.40625 0.14453,-0.160157 0.38281,-0.253907 0.23828,-0.09766 0.5586,-0.09766 0.41406,0 0.97265,0.207031 0.0586,0.01953 0.0977,0.01953 0.15234,0 0.26172,-0.15625 0.10937,-0.160157 0.10937,-0.34375 0,-0.246094 -0.1914,-0.328125 -0.57813,-0.277344 -1.23438,-0.277344 -0.57031,0 -1.00391,0.171875 -0.43359,0.171875 -0.70703,0.464844 -0.27343,0.289062 -0.44531,0.714843 -0.17187,0.425782 -0.23828,0.886719 -0.0664,0.457031 -0.0664,1.015625 0,0.449219 0.0742,0.835938 0.0742,0.382812 0.23828,0.71875 0.16797,0.332031 0.41797,0.566406 0.25391,0.234375 0.62891,0.371094 0.3789,0.132812 0.85156,0.132812 z m 0.0195,-2.921875 q 0.48047,0 0.71875,0.285156 0.24219,0.285157 0.24219,0.777344 0,0.503906 -0.26563,0.761719 -0.26562,0.257812 -0.75781,0.257812 -0.44922,0 -0.71875,-0.265625 -0.26562,-0.269531 -0.26562,-0.730468 0,-0.515625 0.26953,-0.800782 0.26953,-0.285156 0.77734,-0.285156 z"
           style="font-size:8px;fill:#cccccc"
           id="path1407" />
      </g>
      <g
         transform="translate(-230.59357,137.16156)"
         aria-label="K7"
         id="text3008"
         style="font-style:normal;font-weight:normal;font-size:40px;line-height:1.25;font-family:sans-serif;fill:#cccccc;fill-opacity:1;stroke:none">
        <path
           inkscape:connector-curvature="0"
           d="m 390.17975,87.925339 q 0.22656,0 0.39453,-0.160157 0.16797,-0.160156 0.16797,-0.414062 v -2.203125 l 2.08594,2.414062 q 0.0976,0.121094 0.15625,0.183594 0.0586,0.0625 0.15234,0.121094 0.0937,0.05469 0.18359,0.05469 h 0.008 q 0.21484,0 0.38281,-0.152343 0.17187,-0.152344 0.17187,-0.363282 0,-0.207031 -0.15234,-0.414062 l -1.83203,-2.042969 1.64844,-1.785156 q 0.15234,-0.183594 0.15234,-0.378906 0,-0.203125 -0.16016,-0.34375 -0.16015,-0.144532 -0.36328,-0.144532 -0.21094,0 -0.45703,0.304688 l -1.97656,2.246094 v -1.980469 q 0,-0.257813 -0.16797,-0.417969 -0.16797,-0.160156 -0.39453,-0.160156 -0.22656,0 -0.39453,0.160156 -0.16407,0.160156 -0.16407,0.417969 v 4.484375 q 0,0.257812 0.16407,0.417969 0.16406,0.15625 0.39453,0.15625 z"
           style="font-size:8px;fill:#cccccc"
           id="path1437" />
        <path
           inkscape:connector-curvature="0"
           d="m 396.16803,87.925339 q 0.14844,0 0.27734,-0.07813 0.12891,-0.08203 0.19922,-0.242188 l 1.86719,-4.207031 q 0.14453,-0.363281 0.14453,-0.613281 0,-0.488282 -0.62109,-0.488282 h -2.9375 q -0.21485,0 -0.32813,0.128907 -0.11328,0.128906 -0.11328,0.316406 0,0.195312 0.11328,0.320312 0.11719,0.125 0.32813,0.125 h 2.33984 l -1.74219,3.871094 q -0.0898,0.230469 -0.0898,0.34375 0,0.226563 0.16797,0.375 0.17187,0.148438 0.39453,0.148438 z"
           style="font-size:8px;fill:#cccccc"
           id="path1439" />
      </g>
      <g
         transform="translate(-231.2902,137.18305)"
         aria-label="K8"
         id="text3014"
         style="font-style:normal;font-weight:normal;font-size:40px;line-height:1.25;font-family:sans-serif;fill:#cccccc;fill-opacity:1;stroke:none">
        <path
           inkscape:connector-curvature="0"
           d="m 450.17975,87.925339 q 0.22656,0 0.39453,-0.160157 0.16797,-0.160156 0.16797,-0.414062 v -2.203125 l 2.08594,2.414062 q 0.0976,0.121094 0.15625,0.183594 0.0586,0.0625 0.15234,0.121094 0.0937,0.05469 0.18359,0.05469 h 0.008 q 0.21484,0 0.38281,-0.152343 0.17187,-0.152344 0.17187,-0.363282 0,-0.207031 -0.15234,-0.414062 l -1.83203,-2.042969 1.64844,-1.785156 q 0.15234,-0.183594 0.15234,-0.378906 0,-0.203125 -0.16016,-0.34375 -0.16015,-0.144532 -0.36328,-0.144532 -0.21094,0 -0.45703,0.304688 l -1.97656,2.246094 v -1.980469 q 0,-0.257813 -0.16797,-0.417969 -0.16797,-0.160156 -0.39453,-0.160156 -0.22656,0 -0.39453,0.160156 -0.16407,0.160156 -0.16407,0.417969 v 4.484375 q 0,0.257812 0.16407,0.417969 0.16406,0.15625 0.39453,0.15625 z"
           style="font-size:8px;fill:#cccccc"
           id="path1425" />
        <path
           inkscape:connector-curvature="0"
           d="m 456.66803,88.015182 q 0.95703,0 1.52344,-0.441406 0.5664,-0.445312 0.5664,-1.1875 0,-0.542969 -0.27343,-0.898437 -0.26954,-0.359375 -0.80079,-0.496094 0.44922,-0.101563 0.70704,-0.4375 0.26171,-0.335938 0.26171,-0.820313 0,-0.738281 -0.54687,-1.15625 -0.54297,-0.421875 -1.4375,-0.421875 -0.89453,0 -1.43359,0.421875 -0.53516,0.421875 -0.53516,1.15625 0,0.496094 0.25391,0.824219 0.25781,0.328125 0.71093,0.433594 -0.51562,0.113281 -0.79687,0.492187 -0.27735,0.375 -0.27735,0.902344 0,0.742188 0.5586,1.1875 0.5625,0.441406 1.51953,0.441406 z m 0.008,-0.820312 q -0.98437,0 -0.98437,-0.851563 0,-0.457031 0.27343,-0.6875 0.27344,-0.230468 0.71094,-0.230468 0.4336,0 0.70313,0.234375 0.27343,0.230468 0.27343,0.683593 0,0.851563 -0.97656,0.851563 z m 0,-2.648438 q -0.4414,0 -0.68359,-0.207031 -0.24219,-0.207031 -0.24219,-0.621094 0,-0.28125 0.12891,-0.460937 0.13281,-0.179688 0.32812,-0.246094 0.19922,-0.06641 0.46875,-0.06641 0.26563,0 0.46094,0.06641 0.19922,0.06641 0.32812,0.246094 0.13282,0.179687 0.13282,0.460937 0,0.414063 -0.24219,0.621094 -0.23828,0.207031 -0.67969,0.207031 z"
           style="font-size:8px;fill:#cccccc"
           id="path1427" />
      </g>
      <g
         transform="translate(-229.36635,192.95365)"
         aria-label="K9"
         id="text3020"
         style="font-style:normal;font-weight:normal;font-size:40px;line-height:1.25;font-family:sans-serif;fill:#cccccc;fill-opacity:1;stroke:none">
        <path
           inkscape:connector-curvature="0"
           d="m 270.17975,127.92534 q 0.22656,0 0.39453,-0.16016 0.16797,-0.16015 0.16797,-0.41406 v -2.20313 l 2.08594,2.41407 q 0.0976,0.12109 0.15625,0.18359 0.0586,0.0625 0.15234,0.12109 0.0937,0.0547 0.18359,0.0547 h 0.008 q 0.21484,0 0.38281,-0.15234 0.17187,-0.15235 0.17187,-0.36328 0,-0.20703 -0.15234,-0.41407 l -1.83203,-2.04296 1.64844,-1.78516 q 0.15234,-0.18359 0.15234,-0.37891 0,-0.20312 -0.16016,-0.34375 -0.16015,-0.14453 -0.36328,-0.14453 -0.21094,0 -0.45703,0.30469 l -1.97656,2.24609 v -1.98047 q 0,-0.25781 -0.16797,-0.41796 -0.16797,-0.16016 -0.39453,-0.16016 -0.22656,0 -0.39453,0.16016 -0.16407,0.16015 -0.16407,0.41796 v 4.48438 q 0,0.25781 0.16407,0.41797 0.16406,0.15625 0.39453,0.15625 z"
           style="font-size:8px;fill:#cccccc"
           id="path1393" />
        <path
           inkscape:connector-curvature="0"
           d="m 276.32428,128.02299 q 0.41016,0 0.75,-0.0898 0.33984,-0.0898 0.58984,-0.24609 0.25391,-0.16016 0.44532,-0.39063 0.19531,-0.23437 0.32031,-0.50781 0.1289,-0.27344 0.20703,-0.60547 0.082,-0.33594 0.11328,-0.67969 0.0352,-0.34375 0.0352,-0.73437 0,-0.44922 -0.0742,-0.83203 -0.0742,-0.38672 -0.24219,-0.71875 -0.16406,-0.33594 -0.41797,-0.57032 -0.2539,-0.23437 -0.6289,-0.36718 -0.375,-0.13672 -0.84766,-0.13672 -0.92969,0 -1.48438,0.52734 -0.55078,0.52344 -0.55078,1.35938 0,0.80078 0.52735,1.29297 0.53125,0.48828 1.32812,0.48828 0.46485,0 0.8086,-0.16407 0.34375,-0.16406 0.45703,-0.39062 0,0.34766 -0.0312,0.61328 -0.0312,0.26563 -0.11719,0.51563 -0.0859,0.25 -0.23047,0.41015 -0.14453,0.15625 -0.38281,0.25391 -0.23828,0.0937 -0.5586,0.0937 -0.39843,0 -0.97265,-0.20703 -0.0586,-0.0195 -0.0977,-0.0195 -0.15625,0 -0.26562,0.15625 -0.10938,0.15625 -0.10938,0.33984 0,0.25 0.19531,0.33203 0.57813,0.27734 1.23438,0.27734 z m 0.22266,-2.95703 q -0.47657,0 -0.71485,-0.28515 -0.23828,-0.28516 -0.23828,-0.78125 0,-0.5 0.26563,-0.75782 0.26562,-0.25781 0.7539,-0.25781 0.44922,0 0.71875,0.26953 0.26953,0.26563 0.26953,0.72657 0,0.51562 -0.27343,0.80078 -0.27344,0.28515 -0.78125,0.28515 z"
           style="font-size:8px;fill:#cccccc"
           id="path1395" />
      </g>
      <g
         transform="translate(-232.43014,192.94001)"
         aria-label="K10"
         id="text3026"
         style="font-style:normal;font-weight:normal;font-size:40px;line-height:1.25;font-family:sans-serif;fill:#cccccc;fill-opacity:1;stroke:none">
        <path
           inkscape:connector-curvature="0"
           d="m 330.17975,127.92534 q 0.22656,0 0.39453,-0.16016 0.16797,-0.16015 0.16797,-0.41406 v -2.20313 l 2.08594,2.41407 q 0.0976,0.12109 0.15625,0.18359 0.0586,0.0625 0.15234,0.12109 0.0937,0.0547 0.18359,0.0547 h 0.008 q 0.21484,0 0.38281,-0.15234 0.17187,-0.15235 0.17187,-0.36328 0,-0.20703 -0.15234,-0.41407 l -1.83203,-2.04296 1.64844,-1.78516 q 0.15234,-0.18359 0.15234,-0.37891 0,-0.20312 -0.16016,-0.34375 -0.16015,-0.14453 -0.36328,-0.14453 -0.21094,0 -0.45703,0.30469 l -1.97656,2.24609 v -1.98047 q 0,-0.25781 -0.16797,-0.41796 -0.16797,-0.16016 -0.39453,-0.16016 -0.22656,0 -0.39453,0.16016 -0.16407,0.16015 -0.16407,0.41796 v 4.48438 q 0,0.25781 0.16407,0.41797 0.16406,0.15625 0.39453,0.15625 z"
           style="font-size:8px;fill:#cccccc"
           id="path1398" />
        <path
           inkscape:connector-curvature="0"
           d="m 336.95319,127.92534 q 0.23828,0 0.39453,-0.17188 0.15625,-0.17187 0.15625,-0.45703 l -0.004,-4.35937 q 0,-0.3086 -0.14844,-0.47657 -0.14453,-0.16796 -0.375,-0.16796 -0.15625,0.004 -0.3164,0.10156 l -1.38282,0.8164 q -0.20312,0.125 -0.20312,0.33594 0,0.16016 0.10937,0.28125 0.10938,0.1211 0.26563,0.1211 0.11328,0 0.19922,-0.0586 l 0.75781,-0.46484 0.004,3.84765 q 0,0.3125 0.15234,0.48438 0.15234,0.16797 0.39063,0.16797 z"
           style="font-size:8px;fill:#cccccc"
           id="path1400" />
        <path
           inkscape:connector-curvature="0"
           d="m 341.51178,127.15581 q -0.21094,0 -0.37891,-0.0781 -0.16406,-0.0781 -0.27343,-0.22656 -0.10547,-0.15234 -0.17969,-0.33594 -0.0703,-0.18359 -0.10938,-0.43359 -0.0352,-0.25 -0.0508,-0.48047 -0.0117,-0.23047 -0.0117,-0.51953 0,-0.28906 0.0117,-0.51563 0.0156,-0.23047 0.0508,-0.47656 0.0391,-0.24609 0.10938,-0.42578 0.0742,-0.17969 0.17969,-0.32813 0.10937,-0.14843 0.27343,-0.22265 0.16797,-0.0781 0.37891,-0.0781 0.21094,0 0.375,0.0781 0.16797,0.0742 0.27344,0.22265 0.10937,0.14844 0.17968,0.32813 0.0742,0.17969 0.10938,0.42578 0.0391,0.24609 0.0508,0.47656 0.0156,0.23047 0.0156,0.51563 0,0.28906 -0.0156,0.52344 -0.0117,0.23046 -0.0508,0.48046 -0.0352,0.2461 -0.10938,0.42969 -0.0742,0.1836 -0.18359,0.33594 -0.10547,0.14844 -0.26953,0.22656 -0.16406,0.0781 -0.375,0.0781 z m 0,0.87109 q 0.46875,0 0.83594,-0.16016 0.36718,-0.16406 0.60156,-0.43359 0.23828,-0.27344 0.39062,-0.65625 0.15625,-0.38672 0.21875,-0.80078 0.0625,-0.41797 0.0625,-0.89453 0,-0.48047 -0.0664,-0.89453 -0.0625,-0.41407 -0.21875,-0.78907 -0.15235,-0.3789 -0.39063,-0.64453 -0.23437,-0.26953 -0.60156,-0.42578 -0.36719,-0.16015 -0.83203,-0.16015 -0.47266,0 -0.84375,0.16015 -0.36719,0.16016 -0.60156,0.42969 -0.23438,0.26562 -0.39063,0.64844 -0.15234,0.3789 -0.21484,0.78906 -0.0625,0.41016 -0.0625,0.88672 0,0.48047 0.0625,0.89844 0.0625,0.41406 0.21484,0.80078 0.15625,0.38281 0.39063,0.65234 0.23828,0.26953 0.60547,0.43359 0.37109,0.16016 0.83984,0.16016 z"
           style="font-size:8px;fill:#cccccc"
           id="path1402" />
      </g>
      <g
         transform="translate(-232.42365,192.93023)"
         aria-label="K11"
         id="text3032"
         style="font-style:normal;font-weight:normal;font-size:40px;line-height:1.25;font-family:sans-serif;fill:#cccccc;fill-opacity:1;stroke:none">
        <path
           inkscape:connector-curvature="0"
           d="m 390.17975,127.92534 q 0.22656,0 0.39453,-0.16016 0.16797,-0.16015 0.16797,-0.41406 v -2.20313 l 2.08594,2.41407 q 0.0976,0.12109 0.15625,0.18359 0.0586,0.0625 0.15234,0.12109 0.0937,0.0547 0.18359,0.0547 h 0.008 q 0.21484,0 0.38281,-0.15234 0.17187,-0.15235 0.17187,-0.36328 0,-0.20703 -0.15234,-0.41407 l -1.83203,-2.04296 1.64844,-1.78516 q 0.15234,-0.18359 0.15234,-0.37891 0,-0.20312 -0.16016,-0.34375 -0.16015,-0.14453 -0.36328,-0.14453 -0.21094,0 -0.45703,0.30469 l -1.97656,2.24609 v -1.98047 q 0,-0.25781 -0.16797,-0.41796 -0.16797,-0.16016 -0.39453,-0.16016 -0.22656,0 -0.39453,0.16016 -0.16407,0.16015 -0.16407,0.41796 v 4.48438 q 0,0.25781 0.16407,0.41797 0.16406,0.15625 0.39453,0.15625 z"
           style="font-size:8px;fill:#cccccc"
           id="path1442" />
        <path
           inkscape:connector-curvature="0"
           d="m 396.95319,127.92534 q 0.23828,0 0.39453,-0.17188 0.15625,-0.17187 0.15625,-0.45703 l -0.004,-4.35937 q 0,-0.3086 -0.14844,-0.47657 -0.14453,-0.16796 -0.375,-0.16796 -0.15625,0.004 -0.3164,0.10156 l -1.38282,0.8164 q -0.20312,0.125 -0.20312,0.33594 0,0.16016 0.10937,0.28125 0.10938,0.1211 0.26563,0.1211 0.11328,0 0.19922,-0.0586 l 0.75781,-0.46484 0.004,3.84765 q 0,0.3125 0.15234,0.48438 0.15234,0.16797 0.39063,0.16797 z"
           style="font-size:8px;fill:#cccccc"
           id="path1444" />
        <path
           inkscape:connector-curvature="0"
           d="m 401.76569,127.92534 q 0.23828,0 0.39453,-0.17188 0.15625,-0.17187 0.15625,-0.45703 l -0.004,-4.35937 q 0,-0.3086 -0.14844,-0.47657 -0.14453,-0.16796 -0.375,-0.16796 -0.15625,0.004 -0.3164,0.10156 l -1.38282,0.8164 q -0.20312,0.125 -0.20312,0.33594 0,0.16016 0.10937,0.28125 0.10938,0.1211 0.26563,0.1211 0.11328,0 0.19922,-0.0586 l 0.75781,-0.46484 0.004,3.84765 q 0,0.3125 0.15234,0.48438 0.15234,0.16797 0.39063,0.16797 z"
           style="font-size:8px;fill:#cccccc"
           id="path1446" />
      </g>
      <g
         transform="translate(-233.56755,192.93803)"
         aria-label="K12"
         id="text3038"
         style="font-style:normal;font-weight:normal;font-size:40px;line-height:1.25;font-family:sans-serif;fill:#cccccc;fill-opacity:1;stroke:none">
        <path
           inkscape:connector-curvature="0"
           d="m 450.17975,127.92534 q 0.22656,0 0.39453,-0.16016 0.16797,-0.16015 0.16797,-0.41406 v -2.20313 l 2.08594,2.41407 q 0.0976,0.12109 0.15625,0.18359 0.0586,0.0625 0.15234,0.12109 0.0937,0.0547 0.18359,0.0547 h 0.008 q 0.21484,0 0.38281,-0.15234 0.17187,-0.15235 0.17187,-0.36328 0,-0.20703 -0.15234,-0.41407 l -1.83203,-2.04296 1.64844,-1.78516 q 0.15234,-0.18359 0.15234,-0.37891 0,-0.20312 -0.16016,-0.34375 -0.16015,-0.14453 -0.36328,-0.14453 -0.21094,0 -0.45703,0.30469 l -1.97656,2.24609 v -1.98047 q 0,-0.25781 -0.16797,-0.41796 -0.16797,-0.16016 -0.39453,-0.16016 -0.22656,0 -0.39453,0.16016 -0.16407,0.16015 -0.16407,0.41796 v 4.48438 q 0,0.25781 0.16407,0.41797 0.16406,0.15625 0.39453,0.15625 z"
           style="font-size:8px;fill:#cccccc"
           id="path1430" />
        <path
           inkscape:connector-curvature="0"
           d="m 456.95319,127.92534 q 0.23828,0 0.39453,-0.17188 0.15625,-0.17187 0.15625,-0.45703 l -0.004,-4.35937 q 0,-0.3086 -0.14844,-0.47657 -0.14453,-0.16796 -0.375,-0.16796 -0.15625,0.004 -0.3164,0.10156 l -1.38282,0.8164 q -0.20312,0.125 -0.20312,0.33594 0,0.16016 0.10937,0.28125 0.10938,0.1211 0.26563,0.1211 0.11328,0 0.19922,-0.0586 l 0.75781,-0.46484 0.004,3.84765 q 0,0.3125 0.15234,0.48438 0.15234,0.16797 0.39063,0.16797 z"
           style="font-size:8px;fill:#cccccc"
           id="path1432" />
        <path
           inkscape:connector-curvature="0"
           d="m 463.31256,123.89018 q 0,-0.67969 -0.51172,-1.14844 -0.50781,-0.46875 -1.30469,-0.46875 -0.48046,0 -0.875,0.12891 -0.39453,0.125 -0.78515,0.35547 -0.20313,0.12109 -0.20313,0.32422 0,0.17578 0.14063,0.32812 0.14062,0.15235 0.30078,0.15235 0.0625,0 0.11328,-0.0273 0.0312,-0.0156 0.22656,-0.1289 0.19532,-0.11328 0.28125,-0.14844 0.0859,-0.0391 0.28125,-0.0859 0.19922,-0.0469 0.41797,-0.0469 0.3711,0 0.62891,0.23047 0.26172,0.23046 0.26172,0.59375 0,0.43359 -0.4961,0.91796 l -2.02343,2.01172 q -0.21485,0.21485 -0.21485,0.5 0,0.22657 0.14844,0.38672 0.15234,0.16016 0.41016,0.16016 h 2.78125 q 0.16015,0 0.25,-0.125 0.0898,-0.12891 0.0898,-0.30078 0,-0.17188 -0.0898,-0.29297 -0.0899,-0.125 -0.25,-0.125 h -2.16407 l 1.65235,-1.46485 q 0.93359,-0.8164 0.93359,-1.72656 z"
           style="font-size:8px;fill:#cccccc"
           id="path1434" />
      </g>
    </g>
  </g>
  <rect
     style="fill:none;stroke:#c6b4b4;stroke-width:1.37975;stroke-opacity:1"
     id="rect944"
     width="598.62024"
     height="378.62024"
     x="0.18909346"
     y="0.18909346" />
  <g
     style="font-style:normal;font-weight:normal;font-size:40px;line-height:1.25;font-family:sans-serif;letter-spacing:0px;word-spacing:0px;fill:#a1caca;fill-opacity:1;stroke:none"
     id="text951"
     aria-label="minilab">
    <path
       id="path961"
       style="font-style:normal;font-variant:normal;font-weight:normal;font-stretch:normal;font-size:26.6667px;font-family:sans-serif;-inkscape-font-specification:'sans-serif, Normal';font-variant-ligatures:normal;font-variant-caps:normal;font-variant-numeric:normal;font-variant-east-asian:normal;fill:#a1caca;fill-opacity:1"
       d="m 24.445327,18.476574 q 0.898439,-1.614586 2.14844,-2.382816 1.250002,-0.76823 2.942712,-0.76823 2.278649,0 3.51563,1.601565 1.236981,1.588543 1.236981,4.531255 v 8.802095 h -2.408858 v -8.72397 q 0,-2.096356 -0.742188,-3.111983 -0.742188,-1.015626 -2.265628,-1.015626 -1.861981,0 -2.942712,1.236981 -1.08073,1.23698 -1.08073,3.3724 v 8.242198 h -2.408858 v -8.72397 q 0,-2.109377 -0.742188,-3.111983 -0.742189,-1.015626 -2.29167,-1.015626 -1.83594,0 -2.91667,1.250002 -1.080731,1.23698 -1.080731,3.359379 v 8.242198 H 13 V 15.677091 h 2.408857 v 2.265628 q 0.820314,-1.341148 1.966149,-1.979169 1.145835,-0.638022 2.721357,-0.638022 1.588544,0 2.695316,0.807293 1.119793,0.807292 1.653648,2.343753 z" />
    <path
       id="path963"
       style="font-style:normal;font-variant:normal;font-weight:normal;font-stretch:normal;font-size:26.6667px;font-family:sans-serif;-inkscape-font-specification:'sans-serif, Normal';font-variant-ligatures:normal;font-variant-caps:normal;font-variant-numeric:normal;font-variant-east-asian:normal;fill:#a1caca;fill-opacity:1"
       d="m 39.080763,15.677091 h 2.395836 v 14.583352 h -2.395836 z m 0,-5.677091 h 2.395836 v 3.033858 h -2.395836 z" />
    <path
       id="path965"
       style="font-style:normal;font-variant:normal;font-weight:normal;font-stretch:normal;font-size:26.6667px;font-family:sans-serif;-inkscape-font-specification:'sans-serif, Normal';font-variant-ligatures:normal;font-variant-caps:normal;font-variant-numeric:normal;font-variant-east-asian:normal;fill:#a1caca;fill-opacity:1"
       d="m 58.599017,21.458348 v 8.802095 h -2.395836 v -8.72397 q 0,-2.070315 -0.807293,-3.098962 -0.807293,-1.028647 -2.421878,-1.028647 -1.940107,0 -3.0599,1.236981 -1.119793,1.23698 -1.119793,3.3724 v 8.242198 H 46.38546 V 15.677091 h 2.408857 v 2.265628 q 0.859376,-1.315106 2.018232,-1.966148 1.171877,-0.651043 2.695316,-0.651043 2.513024,0 3.802088,1.562502 1.289064,1.549481 1.289064,4.570318 z" />
    <path
       id="path967"
       style="font-style:normal;font-variant:normal;font-weight:normal;font-stretch:normal;font-size:26.6667px;font-family:sans-serif;-inkscape-font-specification:'sans-serif, Normal';font-variant-ligatures:normal;font-variant-caps:normal;font-variant-numeric:normal;font-variant-east-asian:normal;fill:#a1caca;fill-opacity:1"
       d="m 63.403711,15.677091 h 2.395836 v 14.583352 h -2.395836 z m 0,-5.677091 h 2.395836 v 3.033858 h -2.395836 z" />
    <path
       id="path969"
       style="font-style:normal;font-variant:normal;font-weight:normal;font-stretch:normal;font-size:26.6667px;font-family:sans-serif;-inkscape-font-specification:'sans-serif, Normal';font-variant-ligatures:normal;font-variant-caps:normal;font-variant-numeric:normal;font-variant-east-asian:normal;fill:#a1caca;fill-opacity:1"
       d="m 70.799551,10 h 2.395836 v 20.260443 h -2.395836 z" />
    <path
       id="path971"
       style="font-style:normal;font-variant:normal;font-weight:normal;font-stretch:normal;font-size:26.6667px;font-family:sans-serif;-inkscape-font-specification:'sans-serif, Normal';font-variant-ligatures:normal;font-variant-caps:normal;font-variant-numeric:normal;font-variant-east-asian:normal;fill:#a1caca;fill-opacity:1"
       d="m 84.823007,22.929704 q -2.90365,0 -4.023443,0.664064 -1.119793,0.664063 -1.119793,2.265628 0,1.276043 0.833334,2.031252 0.846356,0.742189 2.29167,0.742189 1.99219,0 3.190108,-1.406252 1.210939,-1.419273 1.210939,-3.763026 v -0.533855 z m 4.778652,-0.989584 v 8.320323 h -2.395837 v -2.213545 q -0.820313,1.328127 -2.044273,1.966149 -1.22396,0.625 -2.994796,0.625 -2.239586,0 -3.567712,-1.250001 -1.315106,-1.263023 -1.315106,-3.3724 0,-2.460941 1.640627,-3.710942 1.653648,-1.250002 4.921881,-1.250002 h 3.359379 v -0.234375 q 0,-1.653648 -1.093751,-2.552087 -1.080731,-0.911459 -3.046879,-0.911459 -1.250002,0 -2.434899,0.299479 -1.184897,0.29948 -2.278649,0.898439 v -2.213545 q 1.315106,-0.507813 2.552087,-0.755209 1.236981,-0.260417 2.408857,-0.260417 3.164067,0 4.726569,1.640627 1.562502,1.640627 1.562502,4.973965 z" />
    <path
       id="path973"
       style="font-style:normal;font-variant:normal;font-weight:normal;font-stretch:normal;font-size:26.6667px;font-family:sans-serif;-inkscape-font-specification:'sans-serif, Normal';font-variant-ligatures:normal;font-variant-caps:normal;font-variant-numeric:normal;font-variant-east-asian:normal;fill:#a1caca;fill-opacity:1"
       d="m 105.01834,22.981788 q 0,-2.643233 -1.09375,-4.140631 -1.08073,-1.510418 -2.98177,-1.510418 -1.901046,0 -2.994797,1.510418 -1.080731,1.497398 -1.080731,4.140631 0,2.643232 1.080731,4.153651 1.093751,1.497398 2.994797,1.497398 1.90104,0 2.98177,-1.497398 1.09375,-1.510419 1.09375,-4.153651 z m -8.151048,-5.091153 q 0.75521,-1.302085 1.901045,-1.927085 1.158855,-0.638022 2.760423,-0.638022 2.65625,0 4.3099,2.109378 1.66667,2.109377 1.66667,5.546882 0,3.437504 -1.66667,5.546882 -1.65365,2.109377 -4.3099,2.109377 -1.601568,0 -2.760423,-0.625 -1.145835,-0.638022 -1.901045,-1.940107 v 2.187503 H 94.458435 V 10 h 2.408857 z" />
  </g>
  <g
     inkscape:transform-center-y="-1.7751156"
     inkscape:transform-center-x="54.141025"
     style="font-style:normal;font-weight:normal;font-size:40px;line-height:1.25;font-family:sans-serif;letter-spacing:0px;word-spacing:0px;fill:#a1caca;fill-opacity:1;stroke:none"
     id="text951-7"
     aria-label="input">
    <path
       id="path976"
       style="font-style:normal;font-variant:normal;font-weight:normal;font-stretch:normal;font-size:13.3333px;font-family:sans-serif;-inkscape-font-specification:'sans-serif, Normal';font-variant-ligatures:normal;font-variant-caps:normal;font-variant-numeric:normal;font-variant-east-asian:normal;fill:#a1caca;fill-opacity:1"
       d="m 12.748696,54.864602 h 1.197913 v 7.291648 h -1.197913 z m 0,-2.838535 h 1.197913 v 1.516924 h -1.197913 z" />
    <path
       id="path978"
       style="font-style:normal;font-variant:normal;font-weight:normal;font-stretch:normal;font-size:13.3333px;font-family:sans-serif;-inkscape-font-specification:'sans-serif, Normal';font-variant-ligatures:normal;font-variant-caps:normal;font-variant-numeric:normal;font-variant-east-asian:normal;fill:#a1caca;fill-opacity:1"
       d="m 22.507786,57.755219 v 4.401031 h -1.197914 v -4.361968 q 0,-1.035154 -0.403645,-1.549475 -0.403645,-0.514322 -1.210934,-0.514322 -0.97005,0 -1.529944,0.618488 -0.559895,0.618488 -0.559895,1.686194 V 62.15625 H 16.40103 v -7.291648 h 1.204424 v 1.132809 q 0.429687,-0.65755 1.009112,-0.98307 0.585936,-0.32552 1.347653,-0.32552 1.256507,0 1.901037,0.781248 0.64453,0.774738 0.64453,2.28515 z" />
    <path
       id="path980"
       style="font-style:normal;font-variant:normal;font-weight:normal;font-stretch:normal;font-size:13.3333px;font-family:sans-serif;-inkscape-font-specification:'sans-serif, Normal';font-variant-ligatures:normal;font-variant-caps:normal;font-variant-numeric:normal;font-variant-east-asian:normal;fill:#a1caca;fill-opacity:1"
       d="M 26.068974,61.062503 V 64.92968 H 24.86455 V 54.864602 h 1.204424 v 1.106768 q 0.377604,-0.65104 0.950519,-0.963539 0.579425,-0.31901 1.380205,-0.31901 1.328121,0 2.154942,1.054685 0.833331,1.054685 0.833331,2.77343 0,1.718746 -0.833331,2.773431 -0.826821,1.054685 -2.154942,1.054685 -0.80078,0 -1.380205,-0.3125 -0.572915,-0.319009 -0.950519,-0.970049 z m 4.075511,-2.545567 q 0,-1.321611 -0.546874,-2.070307 -0.540363,-0.755206 -1.490881,-0.755206 -0.950519,0 -1.497392,0.755206 -0.540364,0.748696 -0.540364,2.070307 0,1.321612 0.540364,2.076818 0.546873,0.748696 1.497392,0.748696 0.950518,0 1.490881,-0.748696 0.546874,-0.755206 0.546874,-2.076818 z" />
    <path
       id="path982"
       style="font-style:normal;font-variant:normal;font-weight:normal;font-stretch:normal;font-size:13.3333px;font-family:sans-serif;-inkscape-font-specification:'sans-serif, Normal';font-variant-ligatures:normal;font-variant-caps:normal;font-variant-numeric:normal;font-variant-east-asian:normal;fill:#a1caca;fill-opacity:1"
       d="m 33.249945,59.278653 v -4.414051 h 1.197913 v 4.368478 q 0,1.035154 0.403645,1.555986 0.403645,0.514322 1.210935,0.514322 0.970049,0 1.529944,-0.618488 0.566404,-0.618488 0.566404,-1.686194 V 54.864602 H 39.3567 v 7.291648 h -1.197914 v -1.119789 q -0.436196,0.664061 -1.015622,0.989581 -0.572915,0.31901 -1.334632,0.31901 -1.256507,0 -1.907547,-0.781248 -0.65104,-0.781248 -0.65104,-2.285151 z m 3.014315,-4.589832 z" />
    <path
       id="path984"
       style="font-style:normal;font-variant:normal;font-weight:normal;font-stretch:normal;font-size:13.3333px;font-family:sans-serif;-inkscape-font-specification:'sans-serif, Normal';font-variant-ligatures:normal;font-variant-caps:normal;font-variant-numeric:normal;font-variant-east-asian:normal;fill:#a1caca;fill-opacity:1"
       d="m 43.022055,52.794294 v 2.070308 h 2.467442 v 0.930987 h -2.467442 v 3.958323 q 0,0.891925 0.240885,1.145831 0.247395,0.253905 0.996091,0.253905 h 1.230466 v 1.002602 h -1.230466 q -1.386715,0 -1.914057,-0.514322 -0.527343,-0.520832 -0.527343,-1.888016 v -3.958323 h -0.878904 v -0.930987 h 0.878904 v -2.070308 z" />
  </g>
</svg>
